<?xml version="1.0" standalone="no"?>
<!DOCTYPE svg PUBLIC "-//W3C//DTD SVG 20010904//EN"
 "http://www.w3.org/TR/2001/REC-SVG-20010904/DTD/svg10.dtd">
<svg version="1.0" xmlns="http://www.w3.org/2000/svg"
 width="1280.000000pt" height="1280.000000pt" viewBox="0 0 1280.000000 1280.000000"
 preserveAspectRatio="xMidYMid meet">
<metadata>
Created by potrace 1.14, written by Peter Selinger 2001-2017
</metadata>
<g transform="translate(0.000000,1280.000000) scale(0.100000,-0.100000)"
fill="#000000" stroke="none">
<path d="M2560 10600 l0 -920 510 0 510 0 0 410 0 410 4100 0 4100 0 0 -4100
0 -4100 -4100 0 -4100 0 0 410 0 410 -510 0 -510 0 0 -920 0 -920 5120 0 5120
0 0 5120 0 5120 -5120 0 -5120 0 0 -920z"/>
<path d="M9038 8834 c-12 -11 -442 -17 -1238 -18 l-935 -1 0 -159 c0 -151 1
-159 20 -162 11 -1 63 -5 115 -8 284 -17 464 -123 496 -291 7 -32 10 -693 9
-1805 l-2 -1755 -21 -59 c-29 -77 -53 -115 -106 -164 -72 -66 -185 -114 -301
-129 -27 -3 -57 -7 -65 -9 -8 -1 -39 -3 -67 -3 l-53 -1 0 -154 0 -153 1215 0
1215 0 0 153 0 154 -50 1 c-27 1 -58 2 -67 3 -275 32 -426 114 -514 281 -43
83 -44 96 -44 835 0 620 2 705 15 705 8 0 42 -6 75 -14 132 -28 283 -38 550
-35 149 1 281 5 295 8 14 2 54 7 90 11 327 30 650 146 885 315 75 54 180 153
223 210 50 66 90 130 115 182 35 75 94 245 101 293 4 20 8 40 10 44 20 33 28
398 13 539 -11 99 -40 234 -72 328 -100 299 -302 526 -590 664 -124 59 -224
94 -365 125 -8 2 -35 8 -60 14 -71 16 -120 23 -240 37 -25 2 -65 7 -90 10 -45
6 -557 13 -562 8z m-19 -345 c86 -3 248 -30 324 -54 177 -58 337 -198 403
-354 19 -43 51 -146 58 -181 2 -14 7 -36 10 -50 36 -157 41 -645 10 -898 -9
-74 -53 -213 -91 -284 -39 -74 -115 -156 -178 -193 -38 -22 -116 -48 -180 -60
-34 -6 -310 -6 -370 0 -22 2 -69 7 -104 10 -54 6 -156 23 -237 42 l-21 5 0
886 c0 807 1 893 17 949 20 74 50 121 96 151 34 22 108 39 159 36 17 -2 63 -4
104 -5z"/>
<path d="M29 8733 c0 -46 0 -112 0 -148 0 -36 0 -71 0 -79 1 -11 25 -14 110
-15 61 -1 118 -3 128 -5 10 -2 45 -7 78 -10 143 -17 292 -84 326 -148 25 -47
35 -128 33 -283 -2 -184 -13 -890 -19 -1170 -2 -104 -6 -350 -10 -545 -3 -195
-8 -467 -10 -605 -3 -137 -7 -387 -10 -555 -3 -168 -8 -325 -10 -350 -19 -178
-87 -328 -183 -408 -99 -82 -191 -117 -354 -135 l-108 -11 0 -152 0 -151 862
1 863 1 0 153 0 152 -35 1 c-177 3 -323 41 -428 111 -155 105 -219 262 -216
533 1 61 5 443 8 850 4 407 9 884 11 1060 2 176 4 464 5 640 2 281 4 316 16
290 12 -27 61 -152 182 -465 146 -380 265 -688 272 -705 5 -11 37 -92 70 -180
34 -88 88 -227 120 -310 32 -82 93 -240 135 -350 42 -110 85 -220 95 -245 10
-25 48 -124 85 -220 36 -96 70 -184 75 -195 5 -11 87 -220 181 -465 95 -245
190 -493 213 -551 l41 -107 313 0 c171 0 312 1 312 2 0 2 18 54 41 117 22 63
58 166 80 229 22 63 46 131 54 150 8 19 53 145 100 280 48 135 90 254 95 265
5 11 38 103 74 205 35 102 84 241 109 310 25 69 82 229 127 355 45 127 101
284 125 350 23 66 52 147 63 181 12 33 28 78 36 100 12 32 172 480 417 1171
24 67 44 121 46 120 2 -3 9 -310 18 -832 2 -132 7 -370 10 -530 3 -159 7 -418
10 -575 3 -157 7 -413 11 -570 12 -631 12 -641 -33 -753 -64 -161 -254 -259
-514 -266 l-46 -1 0 -154 0 -153 1097 0 1097 -1 0 154 0 154 -41 1 c-241 5
-430 100 -509 256 -56 109 -64 166 -72 523 -3 124 -8 308 -10 410 -3 102 -7
271 -10 375 -7 282 -15 583 -20 820 -2 116 -7 305 -10 420 -25 876 -27 1113
-10 1165 29 93 120 164 268 209 37 11 89 23 115 26 26 4 58 8 70 10 13 2 57 5
98 6 60 2 74 5 75 18 1 16 1 264 0 291 -1 14 -91 16 -815 15 -448 0 -816 -2
-819 -5 -2 -3 -30 -77 -61 -165 -32 -88 -73 -200 -91 -250 -18 -49 -64 -173
-100 -275 -37 -102 -82 -225 -100 -275 -18 -49 -47 -130 -65 -180 -17 -49 -36
-99 -40 -110 -8 -18 -100 -271 -166 -455 -13 -36 -161 -443 -329 -905 -169
-462 -312 -857 -317 -877 -12 -43 -23 -49 -31 -15 -3 12 -14 45 -25 72 -10 28
-56 149 -102 270 -45 121 -88 234 -95 250 -8 17 -25 62 -38 100 -14 39 -89
239 -167 445 -78 206 -179 474 -225 595 -46 121 -118 312 -160 425 -43 113
-90 239 -106 280 -52 141 -280 745 -289 765 -5 11 -32 83 -60 160 -29 77 -54
142 -57 145 -2 3 -421 5 -929 5 l-924 1 -1 -83z"/>
</g>
</svg>
